<svg width="13" height="14" viewBox="0 0 13 14" fill="none" xmlns="http://www.w3.org/2000/svg">
<path d="M8.90764 8.09375C10.7865 8.09375 12.3354 9.64258 12.3354 11.5215V12.1562C12.3354 12.8418 11.7768 13.375 11.1166 13.375H2.17913C1.49358 13.375 0.960375 12.8418 0.960375 12.1562V11.5215C0.960375 9.64258 2.48381 8.09375 4.36272 8.09375C5.09905 8.09375 5.42913 8.5 6.64788 8.5C7.84123 8.5 8.17131 8.09375 8.90764 8.09375ZM11.1166 12.1562V11.5215C11.1166 10.3027 10.1264 9.3125 8.90764 9.3125C8.52678 9.3125 7.9428 9.71875 6.64788 9.71875C5.32756 9.71875 4.74358 9.3125 4.36272 9.3125C3.14397 9.3125 2.17913 10.3027 2.17913 11.5215V12.1562H11.1166ZM6.64788 7.6875C4.61663 7.6875 2.99163 6.0625 2.99163 4.03125C2.99163 2.02539 4.61663 0.375 6.64788 0.375C8.65373 0.375 10.3041 2.02539 10.3041 4.03125C10.3041 6.0625 8.65373 7.6875 6.64788 7.6875ZM6.64788 1.59375C5.30217 1.59375 4.21038 2.71094 4.21038 4.03125C4.21038 5.37695 5.30217 6.46875 6.64788 6.46875C7.96819 6.46875 9.08538 5.37695 9.08538 4.03125C9.08538 2.71094 7.96819 1.59375 6.64788 1.59375Z" fill="white"/>
</svg>
